<svg width="40" height="40" viewBox="0 0 40 40" fill="none" xmlns="http://www.w3.org/2000/svg">
<path d="M39.9035 24.7513C39.4852 22.4362 37.5801 20.5245 35.2683 20.0994C32.7698 19.6428 30.3481 20.7561 29.0997 22.9412C28.963 23.1812 28.698 23.3312 28.3396 23.3312C28.338 23.3312 28.3363 23.3312 28.3346 23.3312V15.8309C28.3346 13.5324 26.4645 11.664 24.1678 11.664L16.6674 11.6624C16.6674 11.3524 16.8458 11.0207 17.0891 10.879C18.8859 9.83895 20.001 7.90386 20.001 5.8304C20.001 4.09696 19.2376 2.4636 17.9075 1.35355C16.5758 0.240133 14.8241 -0.214888 13.089 0.0951266C10.7739 0.511787 8.86042 2.41688 8.4354 4.73035C7.97702 7.22711 9.09044 9.64894 11.2772 10.899C11.5006 11.0257 11.6672 11.354 11.6672 11.664H4.16684C1.87009 11.664 0 13.5324 0 15.8309V35.8318C0 38.1303 1.87009 39.9987 4.16684 39.9987H11.6672C12.5856 39.9987 13.3339 39.252 13.3339 38.262C13.3339 37.3753 12.8623 36.5535 12.1039 36.1202C10.5421 35.2268 9.74539 33.4917 10.0754 31.7C10.3771 30.0549 11.7388 28.6999 13.3839 28.4032C14.6473 28.1698 15.8724 28.4932 16.8374 29.2982C17.7891 30.0949 18.3342 31.26 18.3342 32.4984C18.3342 33.9801 17.5358 35.3619 16.2507 36.1069C15.4807 36.5569 15.0006 37.382 15.0006 38.332C15.0006 39.2521 15.749 39.9988 16.6674 39.9988H24.1677C26.4645 39.9988 28.3346 38.1303 28.3346 35.8319L28.4046 28.3316C28.6979 28.3316 28.9646 28.4899 29.118 28.7549C30.1596 30.55 32.0947 31.6651 34.1682 31.6651C35.9016 31.6651 37.535 30.9017 38.6468 29.5716C39.7585 28.2398 40.2169 26.483 39.9035 24.7513ZM37.3668 28.5015C36.5718 29.4532 35.4067 29.9982 34.1683 29.9982C32.6866 29.9982 31.3048 29.1998 30.5597 27.9181C30.1131 27.1447 29.2863 26.6647 28.3346 26.6647C27.4162 26.6647 26.6679 27.4114 26.6679 28.3314V35.8318C26.6679 37.2102 25.5462 38.3319 24.1678 38.3319L16.6674 38.2619C16.6674 37.9669 16.8258 37.7002 17.0891 37.5468C18.8859 36.5069 20.001 34.5718 20.001 32.4983C20.001 30.7649 19.2376 29.1315 17.9059 28.0215C16.8474 27.1364 15.5241 26.6664 14.1557 26.6664C13.8007 26.6664 13.444 26.6998 13.0856 26.763C10.7722 27.1797 8.85878 29.0848 8.43376 31.3966C7.97538 33.8951 9.08879 36.3169 11.2755 37.5669C11.5172 37.7036 11.6672 37.9703 11.6672 38.332H4.16684C2.78841 38.332 1.66672 37.2103 1.66672 35.8318V15.8309C1.66672 14.4525 2.78841 13.3308 4.16684 13.3308H11.6672C12.5839 13.3308 13.3323 12.5841 13.3356 11.664C13.3356 10.7474 12.8506 9.87895 12.1022 9.45229C10.5405 8.55889 9.74547 6.82381 10.0738 5.03208C10.3771 3.387 11.7372 2.03194 13.3839 1.73528C14.6473 1.50191 15.8724 1.82529 16.8374 2.63033C17.7891 3.427 18.3342 4.59206 18.3342 5.83048C18.3342 7.31219 17.5375 8.69398 16.2524 9.43901C15.4924 9.88239 15.0007 10.7541 15.0007 11.6641C15.0007 12.5842 15.7491 13.3308 16.6674 13.3308H24.1678C25.5462 13.3308 26.6679 14.4525 26.6679 15.831V23.3313C26.6679 24.2514 27.4163 24.998 28.4046 25.0014C29.293 25.0014 30.1147 24.5297 30.5481 23.7697C31.4398 22.2063 33.1766 21.3996 34.9683 21.7412C36.6118 22.0413 37.9668 23.403 38.2635 25.048C38.4918 26.3114 38.1718 27.5381 37.3668 28.5015Z" fill="#173641"/>
</svg>
