<svg width="38" height="38" viewBox="0 0 38 38" fill="none" xmlns="http://www.w3.org/2000/svg">
<path d="M32.4583 0H10.2917C7.2358 0 4.75 2.4858 4.75 5.54168V19.7917C4.75 22.8475 7.2358 25.3333 10.2917 25.3333H24.2139L31.8978 33.0188C32.0498 33.1693 32.2525 33.25 32.4583 33.25C32.5596 33.25 32.6626 33.2295 32.7608 33.1898C33.0568 33.0679 33.25 32.7781 33.25 32.4583V25.2779C35.9322 24.8916 38 22.5783 38 19.7917V5.54168C37.9999 2.4858 35.5141 0 32.4583 0ZM36.4166 19.7917C36.4166 21.9751 34.6401 23.75 32.4583 23.75C32.0213 23.75 31.6666 24.1046 31.6666 24.5416V30.5472L25.1022 23.9811C24.9533 23.8339 24.7522 23.75 24.5417 23.75H10.2917C8.10988 23.75 6.33338 21.975 6.33338 19.7917V5.54168C6.33338 3.35824 8.10988 1.58338 10.2917 1.58338H32.4583C34.6401 1.58338 36.4166 3.35832 36.4166 5.54168V19.7917Z" fill="#173641"/>
<path d="M24.814 28.4997H13.4583C13.2477 28.4997 13.0466 28.5837 12.8978 28.7325L6.3333 35.297V29.2914C6.3333 28.8544 5.97861 28.4997 5.54161 28.4997C3.3598 28.4997 1.58331 26.7248 1.58331 24.5414V10.2915C1.58331 9.16726 2.06305 8.09065 2.90224 7.34327C3.22844 7.05033 3.2553 6.55002 2.96399 6.22546C2.67105 5.89927 2.17394 5.87077 1.84619 6.16215C0.67294 7.21183 0 8.71757 0 10.2915V24.5414C0 27.3281 2.0678 29.6414 4.74999 30.0277V37.2081C4.74999 37.5279 4.94318 37.8177 5.23924 37.9396C5.33743 37.9792 5.4403 37.9998 5.54168 37.9998C5.74749 37.9998 5.95018 37.919 6.10062 37.7686L13.7861 30.0831H24.814C25.251 30.0831 25.6057 29.7284 25.6057 29.2914C25.6057 28.8544 25.251 28.4997 24.814 28.4997Z" fill="#173641"/>
</svg>
