<svg width="43" height="41" viewBox="0 0 43 41" fill="none" xmlns="http://www.w3.org/2000/svg">
<path d="M35.167 22.8531C35.167 32.1176 27.6567 39.628 18.3921 39.628C9.12758 39.628 1.61719 32.1176 1.61719 22.8531C1.61719 13.5885 9.12758 6.07812 18.3921 6.07812" stroke="#173641" stroke-width="2" stroke-linecap="round"/>
<path d="M18.3916 13.375C13.1552 13.375 8.91016 17.62 8.91016 22.8565C8.91016 28.093 13.1552 32.338 18.3916 32.338C18.8877 32.338 19.3748 32.2999 19.8503 32.2264" stroke="#173641" stroke-width="2" stroke-linecap="round"/>
<path d="M27.8711 22.8555C27.8711 24.434 27.4854 25.9224 26.803 27.2315" stroke="#173641" stroke-width="2" stroke-linecap="round"/>
<path d="M20.5792 22.856C20.5792 24.0644 19.5996 25.044 18.3912 25.044C17.1827 25.044 16.2031 24.0644 16.2031 22.856C16.2031 21.6476 17.1827 20.668 18.3912 20.668C19.0846 20.668 19.7027 20.9905 20.1035 21.4938C20.4013 21.8676 20.5792 22.341 20.5792 22.856Z" fill="#173641"/>
<path d="M24.957 2.25642C24.957 1.95084 25.2048 1.70312 25.5103 1.70312H26.9187C34.697 1.70312 41.0026 8.0087 41.0026 15.787V15.787C41.0026 16.0648 40.7774 16.29 40.4996 16.29H25.957C25.4047 16.29 24.957 15.8423 24.957 15.29V2.25642Z" stroke="#173641" stroke-width="2" stroke-linecap="round"/>
</svg>
