<svg width="40" height="44" viewBox="0 0 40 44" fill="none" xmlns="http://www.w3.org/2000/svg">
<path d="M33.6349 32.7273H6.36222C5.8604 32.7273 5.45312 32.32 5.45312 31.8182V0.909091C5.45312 0.407273 5.8604 0 6.36222 0H33.6349C34.1368 0 34.544 0.407273 34.544 0.909091V31.8182C34.544 32.32 34.1368 32.7273 33.6349 32.7273ZM7.27131 30.9091H32.7259V1.81818H7.27131V30.9091Z" fill="#173641"/>
<path d="M17.2724 43.6374C16.7706 43.6374 16.3633 43.2302 16.3633 42.7283V31.8192C16.3633 31.3174 16.7706 30.9102 17.2724 30.9102C17.7742 30.9102 18.1815 31.3174 18.1815 31.8192V42.7283C18.1815 43.2302 17.7742 43.6374 17.2724 43.6374Z" fill="#173641"/>
<path d="M22.7255 43.6374C22.2237 43.6374 21.8164 43.2302 21.8164 42.7283V31.8192C21.8164 31.3174 22.2237 30.9102 22.7255 30.9102C23.2273 30.9102 23.6346 31.3174 23.6346 31.8192V42.7283C23.6346 43.2302 23.2273 43.6374 22.7255 43.6374Z" fill="#173641"/>
<path d="M39.0909 43.6346H0.909091C0.407273 43.6346 0 43.2273 0 42.7255C0 42.2237 0.407273 41.8164 0.909091 41.8164H39.0909C39.5927 41.8164 40 42.2237 40 42.7255C40 43.2273 39.5927 43.6346 39.0909 43.6346Z" fill="#173641"/>
<path d="M28.1829 16.3651H11.8192C11.3174 16.3651 10.9102 15.9578 10.9102 15.456C10.9102 14.9541 11.3174 14.5469 11.8192 14.5469H28.1829C28.6847 14.5469 29.092 14.9541 29.092 15.456C29.092 15.9578 28.6847 16.3651 28.1829 16.3651Z" fill="#173641"/>
<path d="M28.1829 9.09162H11.8192C11.3174 9.09162 10.9102 8.68435 10.9102 8.18253C10.9102 7.68071 11.3174 7.27344 11.8192 7.27344H28.1829C28.6847 7.27344 29.092 7.68071 29.092 8.18253C29.092 8.68435 28.6847 9.09162 28.1829 9.09162Z" fill="#173641"/>
<path d="M28.1829 23.6346H11.8192C11.3174 23.6346 10.9102 23.2273 10.9102 22.7255C10.9102 22.2237 11.3174 21.8164 11.8192 21.8164H28.1829C28.6847 21.8164 29.092 22.2237 29.092 22.7255C29.092 23.2273 28.6847 23.6346 28.1829 23.6346Z" fill="#173641"/>
</svg>
